inDegrees=no
num_controls=7
num_derivatives=13
num_iterations=139
num_multipliers=7
num_parameters=0
num_slacks=7
num_states=26
objective=0.477081
objective_accelerations=0.044388
objective_balance=0.003575
objective_effort=0.040430
objective_height=0.383027
objective_ligament=0.005662
solver_duration=1942.194942
status=Solve_Succeeded
success=true
DataType=double
version=3
OpenSimVersion=4.5
endheader
time	/jointset/ground_pelvis/pelvis_tilt/value	/jointset/ground_pelvis/pelvis_tx/value	/jointset/ground_pelvis/pelvis_ty/value	/jointset/hip_l/hip_flexion_l/value	/jointset/hip_l/hip_adduction_l/value	/jointset/hip_l/hip_rotation_l/value	/jointset/back/lumbar_extension/value	/jointset/patellofemoral_l/patellar_flexion_l/value	/jointset/knee_l/knee_flexion_l/value	/jointset/knee_l/knee_adduction_l/value	/jointset/knee_l/knee_rotation_l/value	/jointset/ankle_l/ankle_angle_l/value	/jointset/subtalar_l/subtalar_angle_l/value	/jointset/ground_pelvis/pelvis_tilt/speed	/jointset/ground_pelvis/pelvis_tx/speed	/jointset/ground_pelvis/pelvis_ty/speed	/jointset/hip_l/hip_flexion_l/speed	/jointset/hip_l/hip_adduction_l/speed	/jointset/hip_l/hip_rotation_l/speed	/jointset/back/lumbar_extension/speed	/jointset/patellofemoral_l/patellar_flexion_l/speed	/jointset/knee_l/knee_flexion_l/speed	/jointset/knee_l/knee_adduction_l/speed	/jointset/knee_l/knee_rotation_l/speed	/jointset/ankle_l/ankle_angle_l/speed	/jointset/subtalar_l/subtalar_angle_l/speed	/forceset/tau_hip_flexion_l	/forceset/tau_hip_adduction_l	/forceset/tau_hip_rotation_l	/forceset/tau_knee_flexion_l	/forceset/tau_ankle_angle_l	/forceset/tau_subtalar_angle_l	/forceset/tau_lumbar_extension	lambda_cid13_p0	lambda_cid13_p1	lambda_cid13_p2	lambda_cid13_p3	lambda_cid13_p4	lambda_cid13_p5	lambda_cid14_p0	/jointset/ground_pelvis/pelvis_tilt/accel	/jointset/ground_pelvis/pelvis_tx/accel	/jointset/ground_pelvis/pelvis_ty/accel	/jointset/hip_l/hip_flexion_l/accel	/jointset/hip_l/hip_adduction_l/accel	/jointset/hip_l/hip_rotation_l/accel	/jointset/back/lumbar_extension/accel	/jointset/patellofemoral_l/patellar_flexion_l/accel	/jointset/knee_l/knee_flexion_l/accel	/jointset/knee_l/knee_adduction_l/accel	/jointset/knee_l/knee_rotation_l/accel	/jointset/ankle_l/ankle_angle_l/accel	/jointset/subtalar_l/subtalar_angle_l/accel	gamma_cid13_p0	gamma_cid13_p1	gamma_cid13_p2	gamma_cid13_p3	gamma_cid13_p4	gamma_cid13_p5	gamma_cid14_p0
0.5	-0.09337164078606877	-0.04068151391885877	0.8068093022430716	0.9287403566694198	-0.3297888939714823	-0.0780854404017416	-0.7903183453754488	0.9230249071799432	0.9230249071799328	-0.1033373137849524	-0.1743651889992623	0.1519596072036089	0.01426169700735312	-0.1242802204739224	-0.1555742799456666	-0.4160006035456797	1.592130752256226	-0.03006994874195196	0.5648741254200371	-0.8387456213191284	1.785320290621871	1.785320290621798	0.1495501819393449	0.0005262898236141973	0.4392254573517044	0.117429985379337	-0.270683589401871	0.0284033403981277	-0.004851687958822698	-0.2481859892522968	0.08590054392974258	0.03953614846659642	0.3274503040273709	-16.69602557152949	-15.62474790200518	3.610200189643845	-9.244229167029609	-701.7367546424059	-69.17804957597957	-9.680777480742885	0.284149865192326	0.6737479137287821	-0.1913156487935693	-1.522373401986612	0.3294408717301261	-0.518581476351924	1.915218507451913	-1.432886889513505	-1.432886889513511	-0.2188418451341545	-0.007952373568246506	-0.2658484503324776	0.3407944016806995	-2.547427794976267e-07	-1.588187663311857e-07	1.527544452508727e-06	1.420739415695005e-07	-2.8130148486354e-07	-1.02451563697534e-07	-2.173916145748705e-07
0.51	-0.0946000532392952	-0.04220355321508305	0.802640656300377	0.9445831679452652	-0.3300739557079339	-0.07246173455809748	-0.7986091868793435	0.9408036935756119	0.9408036935756044	-0.1018553226380749	-0.1743602132249572	0.1563375069872378	0.01545173613891749	-0.1213829178336255	-0.1488332221878609	-0.4176334885700337	1.576212614176009	-0.02695115091193926	0.5598006059680812	-0.8193374909528013	1.770183720909728	1.77018372090964	0.1468446151250652	0.0004666376148803514	0.4362825659641473	0.120548734683269	-0.2768659775559897	0.028682925546813	-0.004992639412915774	-0.2518196790880792	0.08474182543714376	0.0396611628032258	0.3336706507891858	-17.3273285406303	-15.50140364745443	3.513889098304821	-8.996931057634162	-706.2808473472505	-69.05468449065179	-8.955769836630758	0.2953996935166169	0.6743669798438811	-0.1350647751023811	-1.659398579585596	0.3015777439598512	-0.5119014364339	1.966388577492411	-1.591989657365119	-1.591989657367433	-0.2969224176555336	-0.005007085558314265	-0.3192971821054238	0.2928918262510163	-2.4565592664592e-07	-1.524758949979079e-07	1.492234888324309e-06	1.380390384661404e-07	-2.679053930194945e-07	-7.313476155179672e-08	-2.130531949195772e-07
0.52	-0.09579891682011038	-0.04365816547912219	0.7984585235382697	0.960260224926596	-0.3303281337650181	-0.06689079676033827	-0.8067033914243217	0.9584235247450986	0.9584235247450983	-0.1004004888229572	-0.1743558410609461	0.1606838203171634	0.01667205808982159	-0.1183704459905752	-0.1420888735086391	-0.4186979674282242	1.558979893353938	-0.02389321286900856	0.5543205162434678	-0.7994182295356822	1.75352924538557	1.753529245385467	0.1441187155875613	0.0004055677648528161	0.4329081666110648	0.1234865492472638	-0.2830483657101065	0.02896251069550051	-0.005133590866999252	-0.2554533689238611	0.08358310694454658	0.03978617713985825	0.3398909975510018	-17.96069093042257	-15.37818716539755	3.418157603534894	-8.7942902752887	-710.8874994378856	-68.98394980173927	-8.232966118540396	0.3071837057432411	0.6744060980118562	-0.07763441556090218	-1.785289950357566	0.3172689143137424	-0.5998955308834408	2.017444717610431	-1.73646805191635	-1.736468051916344	-0.2229083897789678	-0.008235901826972371	-0.3521500434377333	0.304607453693209	-2.415992743527125e-07	-2.039932820139548e-07	1.443331269163054e-06	1.269374815335149e-07	-2.605493498517974e-07	-6.222274723861732e-08	-2.142220228817118e-07
0.53	-0.09696710457927751	-0.04504537115451433	0.7942686075164811	0.9757584856371515	-0.3305520936301549	-0.0613768252862986	-0.8145960212680147	0.9758693633232655	0.9758693633232757	-0.09897294198898778	-0.1743523001621486	0.1649942923495855	0.0179207912794514	-0.1152506687097341	-0.1353567145792473	-0.4191886175011879	1.540462851973331	-0.02091105749239921	0.5484133657275744	-0.7790380898200414	1.735397618535063	1.735397618535031	0.1413851145014312	0.0003022631317357375	0.4291209720739748	0.1262279483816506	-0.2889393361601056	0.02919293748626614	-0.005229915724981241	-0.2592345054823676	0.08253433992842675	0.03970365029576236	0.3458262172922511	-18.56325133731797	-15.15921907615124	3.294583669780211	-8.524337922894276	-715.3907667141766	-68.76875527253311	-7.519067451739914	0.3168180937971051	0.6719770598650109	-0.02033872610526269	-1.916349910946261	0.2866593680908584	-0.5953851120727995	2.058746006177749	-1.887594791273914	-1.887594791263239	-0.299435692199461	-0.01114954826528629	-0.4017969697110384	0.2539558040200358	-2.322179492505301e-07	-2.051319774462943e-07	1.399488715360017e-06	1.215086396197695e-07	-2.48198118081667e-07	-3.710258100395836e-08	-2.096106286709544e-07
0.54	-0.09810360589473285	-0.04636538398672049	0.7900766733093747	0.9910652881980915	-0.330746637837772	-0.05592377737744469	-0.8222827602330243	0.9931266686749965	0.9931266686750202	-0.0975729011107188	-0.1743497466705222	0.1692649338744636	0.01919594839256691	-0.1120331572471694	-0.1286503048714442	-0.4191016044917903	1.520688263431363	-0.01801008136554001	0.5421358032064626	-0.7582400537989081	1.715822600098314	1.715822600098353	0.1386175244485266	0.0002080863301708007	0.4249420651022273	0.128771333944383	-0.2948303066101002	0.02942336427703739	-0.005326240582992179	-0.2630156420408722	0.0814855729123096	0.03962112345167455	0.3517614370335029	-19.16746761298642	-14.94317829983883	3.175152527265066	-8.303842675492673	-719.9453387622482	-68.60901615466341	-6.837312355803833	0.3267305420881627	0.6692562536939967	0.03789820091130219	-2.036799382629733	0.3010330643637248	-0.6739779319271416	2.101023978709041	-2.025146369164712	-2.025146369164715	-0.2297061831338132	-0.006410335516530925	-0.4304925303694048	0.2650047393623092	-2.169454967852264e-07	-1.505325460200633e-07	1.361245638123519e-06	1.223559930460618e-07	-2.303202946662913e-07	3.737242675741987e-09	-1.986040950348695e-07
0.55	-0.09920747757600416	-0.04761851767337897	0.7858884966449888	1.006168229677314	-0.3309125290488035	-0.050535293636729	-0.8297595537919181	1.010181197458253	1.010181197458249	-0.09620059232632645	-0.1743480376566066	0.1734919259609127	0.02049562143286155	-0.1087254342716008	-0.1219860181236022	-0.4184366405610685	1.499698763011081	-0.01518464006019177	0.5354988301826871	-0.7370640925394371	1.694855302931042	1.694855302931113	0.1358396024576162	0.0001285343630862436	0.4203967769267461	0.1311269974532233	-0.3004772442835636	0.02954990060979364	-0.005379232346880948	-0.2668196773691049	0.08033870399904361	0.03942718679884205	0.357425751388502	-19.80250344058451	-14.66976244486642	3.042468352127569	-7.968667689168038	-724.3552107227771	-68.38012895516121	-6.191200628920264	0.3351351943113078	0.6636015990945814	0.09531454897918087	-2.160241805988504	0.2706433200071581	-0.6680492373888774	2.134067015831079	-2.166660913641413	-2.166660913636676	-0.3025383413509271	-0.009238178297092982	-0.4754808071869399	0.215267595299499	-2.005279958134924e-07	-9.266759625888095e-08	1.31823505013523e-06	1.230903277588905e-07	-2.118692092675067e-07	4.388303833509622e-08	-1.864408048118881e-07
0.5600000000000001	-0.1002778036237208	-0.04880529114980632	0.7817098734318755	1.021055232865478	-0.331050697115502	-0.04521507807620944	-0.837022950774965	1.027019225365211	1.027019225365182	-0.09485620338870306	-0.1743472262725586	0.1776716783963973	0.02181773519597563	-0.1053240305352084	-0.1153782628252177	-0.4171909142372774	1.477500605220354	-0.01246545249937458	0.5284821671674689	-0.7155607386293511	1.67252242483845	1.672522424838552	0.1330335550954574	2.856035629545197e-05	0.4154941349092846	0.1332594785082485	-0.3061241819570236	0.0296764369425538	-0.005432224110787983	-0.2706237126973364	0.07919183508577958	0.03923325014601525	0.363090065743503	-20.43994533676672	-14.39914318006345	2.913906812878817	-7.679468419505235	-728.8237723244264	-68.20380740461457	-5.581280241560408	0.3454666942531099	0.6579499638023726	0.1540506795251246	-2.27853085671883	0.2797823154575289	-0.7499159302156815	2.166502508832135	-2.298262554228887	-2.298262554228888	-0.2353312573834548	-0.01049474345776397	-0.5019632987656695	0.220368248599265	-1.827364366340421e-07	-3.088402449575694e-08	1.269503449244793e-06	1.236890400155628e-07	-1.927302094886315e-07	8.319600037003516e-08	-1.728894066846309e-07
0.5700000000000001	-0.1013137130500886	-0.04992632513238118	0.7775466048324883	1.035714404563242	-0.3311621027820289	-0.03996682873440076	-0.8440698054106014	1.043627248850959	1.04362724885088	-0.09353986471539028	-0.174347357492967	0.1818007039311106	0.02316018741673957	-0.1018459008520854	-0.1088432163214366	-0.4153656878827978	1.454142335585381	-0.00983344448105034	0.5211077866635256	-0.6937714576036956	1.648863361486493	1.648863361486642	0.1302300935464837	-5.770911808916681e-05	0.4102551551691469	0.1351930563910271	-0.3114445397978463	0.02963055997070278	-0.00543857319057079	-0.2744939118823984	0.07800371214983198	0.03898619113816877	0.3684106993080614	-21.08542222872726	-14.10304027288966	2.780132535908876	-7.29039266305806	-733.1041784386658	-68.02749426127467	-5.007735665893236	0.3507625089124395	0.6491044041070648	0.2112898961301983	-2.393207168490674	0.2520640273936829	-0.7403332631575854	2.190950533757219	-2.432531804519362	-2.432531804512331	-0.3034614656214037	-0.00787977128141051	-0.5432295651743267	0.1740194952841008	-1.643007330850147e-07	2.535586386359844e-08	1.212079632268471e-06	1.225397403912837e-07	-1.730518262819859e-07	1.183301320404608e-07	-1.588041345914479e-07
